HIERARCHY
ROOT pelvis
{
	OFFSET 0.003123 -0.351407 0.012037
	CHANNELS 6 Xposition Yposition Zposition Zrotation Yrotation Xrotation 
	JOINT left_hip
	{
		OFFSET 0.058189 -0.092763 -0.026001
		CHANNELS 3 Zrotation Yrotation Xrotation
		JOINT left_knee
		{
			OFFSET 0.054695 -0.378753 -0.009396
			CHANNELS 3 Zrotation Yrotation Xrotation
			JOINT left_ankle
			{
				OFFSET -0.043453 -0.403059 -0.031876
				CHANNELS 3 Zrotation Yrotation Xrotation
				JOINT left_foot
				{
					OFFSET 0.047257 -0.057997 0.118216
					CHANNELS 3 Zrotation Yrotation Xrotation
					End Site
					{
						OFFSET 0.000000 0.000000 0.000000
					}
				}
			}
		}
	}
	JOINT right_hip
	{
		OFFSET -0.063267 -0.103908 -0.021250
		CHANNELS 3 Zrotation Yrotation Xrotation
		JOINT right_knee
		{
			OFFSET -0.044210 -0.362380 -0.016824
			CHANNELS 3 Zrotation Yrotation Xrotation
			JOINT right_ankle
			{
				OFFSET 0.015417 -0.410728 -0.020192
				CHANNELS 3 Zrotation Yrotation Xrotation
				JOINT right_foot
				{
					OFFSET -0.038812 -0.058328 0.119049
					CHANNELS 3 Zrotation Yrotation Xrotation
					End Site
					{
						OFFSET 0.000000 0.000000 0.000000
					}
				}
			}
		}
	}
	JOINT spine_1
	{
		OFFSET -0.002763 0.109891 -0.027618
		CHANNELS 3 Zrotation Yrotation Xrotation
		JOINT spine_2
		{
			OFFSET 0.009448 0.131853 -0.005940
			CHANNELS 3 Zrotation Yrotation Xrotation
			JOINT spine_3
			{
				OFFSET -0.011330 0.052235 0.028447
				CHANNELS 3 Zrotation Yrotation Xrotation
				JOINT neck
				{
					OFFSET -0.012164 0.165167 -0.031615
					CHANNELS 3 Zrotation Yrotation Xrotation
					JOINT head
					{
						OFFSET 0.024783 0.160452 0.020737
						CHANNELS 3 Zrotation Yrotation Xrotation
						End Site
						{
							OFFSET 0.000000 0.000000 0.000000
						}
					}
				}
				JOINT left_collar
				{
					OFFSET 0.046364 0.084944 -0.007220
					CHANNELS 3 Zrotation Yrotation Xrotation
					JOINT left_shoulder
					{
						OFFSET 0.119239 0.057728 -0.015461
						CHANNELS 3 Zrotation Yrotation Xrotation
						JOINT left_elbow
						{
							OFFSET 0.254123 -0.072151 -0.042459
							CHANNELS 3 Zrotation Yrotation Xrotation
							JOINT left_wrist
							{
								OFFSET 0.251987 0.023221 -0.002472
								CHANNELS 3 Zrotation Yrotation Xrotation
								JOINT left_index_1
								{
									OFFSET 0.101902 -0.008688 0.019351
									CHANNELS 3 Zrotation Yrotation Xrotation
									JOINT left_index_2
									{
										OFFSET 0.030149 -0.011154 0.001151
										CHANNELS 3 Zrotation Yrotation Xrotation
										JOINT left_index_3
										{
											OFFSET 0.006504 -0.021577 -0.002433
											CHANNELS 3 Zrotation Yrotation Xrotation
											End Site
											{
												OFFSET 0.000000 0.000000 0.000000
											}
										}
									}
								}
								JOINT left_middle_1
								{
									OFFSET 0.109398 -0.006328 -0.003981
									CHANNELS 3 Zrotation Yrotation Xrotation
									JOINT left_middle_2
									{
										OFFSET 0.026472 -0.015218 -0.004641
										CHANNELS 3 Zrotation Yrotation Xrotation
										JOINT left_middle_3
										{
											OFFSET 0.005022 -0.023347 -0.001911
											CHANNELS 3 Zrotation Yrotation Xrotation
											End Site
											{
												OFFSET 0.000000 0.000000 0.000000
											}
										}
									}
								}
								JOINT left_pinky_1
								{
									OFFSET 0.084047 -0.014539 -0.043750
									CHANNELS 3 Zrotation Yrotation Xrotation
									JOINT left_pinky_2
									{
										OFFSET 0.012124 -0.014448 -0.005375
										CHANNELS 3 Zrotation Yrotation Xrotation
										JOINT left_pinky_3
										{
											OFFSET 0.003798 -0.018853 0.000167
											CHANNELS 3 Zrotation Yrotation Xrotation
											End Site
											{
												OFFSET 0.000000 0.000000 0.000000
											}
										}
									}
								}
								JOINT left_ring_1
								{
									OFFSET 0.097444 -0.009268 -0.027345
									CHANNELS 3 Zrotation Yrotation Xrotation
									JOINT left_ring_2
									{
										OFFSET 0.023561 -0.016057 -0.001895
										CHANNELS 3 Zrotation Yrotation Xrotation
										JOINT left_ring_3
										{
											OFFSET 0.004257 -0.023548 0.000814
											CHANNELS 3 Zrotation Yrotation Xrotation
											End Site
											{
												OFFSET 0.000000 0.000000 0.000000
											}
										}
									}
								}
								JOINT left_thumb_1
								{
									OFFSET 0.040636 -0.017977 0.025611
									CHANNELS 3 Zrotation Yrotation Xrotation
									JOINT left_thumb_2
									{
										OFFSET 0.021637 -0.017639 0.011623
										CHANNELS 3 Zrotation Yrotation Xrotation
										JOINT left_thumb_3
										{
											OFFSET 0.024002 -0.008356 0.006548
											CHANNELS 3 Zrotation Yrotation Xrotation
											End Site
											{
												OFFSET 0.000000 0.000000 0.000000
											}
										}
									}
								}
							}
						}
					}
				}
				JOINT right_collar
				{
					OFFSET -0.047695 0.084339 -0.013400
					CHANNELS 3 Zrotation Yrotation Xrotation
					JOINT right_shoulder
					{
						OFFSET -0.102578 0.053524 -0.012669
						CHANNELS 3 Zrotation Yrotation Xrotation
						JOINT right_elbow
						{
							OFFSET -0.271150 -0.036492 -0.026467
							CHANNELS 3 Zrotation Yrotation Xrotation
							JOINT right_wrist
							{
								OFFSET -0.249267 -0.004533 -0.015325
								CHANNELS 3 Zrotation Yrotation Xrotation
								JOINT right_index_1
								{
									OFFSET -0.099881 -0.011783 0.019600
									CHANNELS 3 Zrotation Yrotation Xrotation
									JOINT right_index_2
									{
										OFFSET -0.030148 -0.011154 0.001151
										CHANNELS 3 Zrotation Yrotation Xrotation
										JOINT right_index_3
										{
											OFFSET -0.006505 -0.021577 -0.002432
											CHANNELS 3 Zrotation Yrotation Xrotation
											End Site
											{
												OFFSET 0.000000 0.000000 0.000000
											}
										}
									}
								}
								JOINT right_middle_1
								{
									OFFSET -0.107376 -0.009422 -0.003734
									CHANNELS 3 Zrotation Yrotation Xrotation
									JOINT right_middle_2
									{
										OFFSET -0.026472 -0.015218 -0.004641
										CHANNELS 3 Zrotation Yrotation Xrotation
										JOINT right_middle_3
										{
											OFFSET -0.005022 -0.023347 -0.001911
											CHANNELS 3 Zrotation Yrotation Xrotation
											End Site
											{
												OFFSET 0.000000 0.000000 0.000000
											}
										}
									}
								}
								JOINT right_pinky_1
								{
									OFFSET -0.082027 -0.017634 -0.043503
									CHANNELS 3 Zrotation Yrotation Xrotation
									JOINT right_pinky_2
									{
										OFFSET -0.012123 -0.014448 -0.005374
										CHANNELS 3 Zrotation Yrotation Xrotation
										JOINT right_pinky_3
										{
											OFFSET -0.003798 -0.018852 0.000167
											CHANNELS 3 Zrotation Yrotation Xrotation
											End Site
											{
												OFFSET 0.000000 0.000000 0.000000
											}
										}
									}
								}
								JOINT right_ring_1
								{
									OFFSET -0.095423 -0.012362 -0.027099
									CHANNELS 3 Zrotation Yrotation Xrotation
									JOINT right_ring_2
									{
										OFFSET -0.023561 -0.016057 -0.001895
										CHANNELS 3 Zrotation Yrotation Xrotation
										JOINT right_ring_3
										{
											OFFSET -0.004257 -0.023548 0.000816
											CHANNELS 3 Zrotation Yrotation Xrotation
											End Site
											{
												OFFSET 0.000000 0.000000 0.000000
											}
										}
									}
								}
								JOINT right_thumb_1
								{
									OFFSET -0.038613 -0.021074 0.025861
									CHANNELS 3 Zrotation Yrotation Xrotation
									JOINT right_thumb_2
									{
										OFFSET -0.021636 -0.017639 0.011623
										CHANNELS 3 Zrotation Yrotation Xrotation
										JOINT right_thumb_3
										{
											OFFSET -0.024004 -0.008353 0.006547
											CHANNELS 3 Zrotation Yrotation Xrotation
											End Site
											{
												OFFSET 0.000000 0.000000 0.000000
											}
										}
									}
								}
							}
						}
					}
				}
			}
		}
	}
}
MOTION
Frames: 4
Frame Time: 0.050000
0.000027 0.705147 0.000587 -0.854078 0.062117 -39.066342 16.485731 0.191896 -23.425743 -18.625586 4.148702 59.824353 0.669147 -2.813180 -4.834687 0.000000 0.000000 0.000000 -15.566739 -0.362700 -24.719842 23.728093 -11.737766 58.511598 9.180392 22.889724 -3.094489 0.000000 0.000000 0.000000 -2.537141 -3.242567 58.811019 -1.486936 0.012637 -3.628483 1.646081 2.844275 5.609553 7.870740 -4.065747 11.841466 0.000000 0.000000 0.000000 -1.232085 -8.124824 3.790704 -18.392571 -37.083198 -8.460696 26.129890 -64.733520 -11.361338 3.869940 -13.467950 -19.137672 -3.158476 0.554115 0.302137 10.232945 -2.452145 -13.296784 0.000000 0.000000 0.000000 -6.953722 -5.809462 -3.733148 11.502933 -0.773989 -4.931660 0.000000 0.000000 0.000000 16.514991 -13.878842 -19.184344 2.977814 3.004243 11.812812 0.000000 0.000000 0.000000 -0.386327 -6.921516 -4.928799 12.529303 1.810322 6.433643 0.000000 0.000000 0.000000 11.294268 11.172742 1.881581 -21.325709 -5.308000 4.096300 0.000000 0.000000 0.000000 6.097338 9.377391 4.674741 43.825235 23.383527 1.446989 29.713138 69.845096 18.432121 -7.137665 -2.104229 5.379066 15.588993 -4.800316 1.519068 -0.162585 2.095689 -6.708640 0.000000 0.000000 0.000000 12.955712 1.971997 -3.041178 0.437570 0.631223 -3.300798 0.000000 0.000000 0.000000 -15.018687 14.078994 -12.691555 26.008953 -0.921557 2.368667 0.000000 0.000000 0.000000 8.314678 3.882665 -2.823643 12.136006 -0.393110 2.160597 0.000000 0.000000 0.000000 -12.243545 -19.737151 14.961191 7.771983 1.193763 1.854113 0.000000 0.000000 0.000000 
0.000203 0.705147 0.000587 -0.919833 0.004802 -38.975818 16.605943 0.219620 -23.536603 -18.605730 4.149592 59.868186 0.562373 -3.029255 -4.813477 0.000000 0.000000 0.000000 -15.613370 -0.366623 -24.774162 23.919759 -11.812089 58.364920 9.241432 22.907819 -2.989749 0.000000 0.000000 0.000000 -2.676993 -3.238413 59.932526 -1.511133 -0.688423 -6.393433 1.943708 2.831267 7.706056 7.474881 -3.961383 11.620788 0.000000 0.000000 0.000000 -1.329045 -7.241766 3.352411 -17.608444 -37.648082 -8.774307 27.508469 -63.836666 -12.030359 4.264037 -13.053060 -19.475626 -2.602961 0.431439 0.240446 11.076279 -2.476556 -13.936043 0.000000 0.000000 0.000000 -6.680920 -6.151830 -3.871995 12.070021 -0.736376 -4.897653 0.000000 0.000000 0.000000 16.373467 -14.145695 -19.657853 4.281425 3.015539 12.435158 0.000000 0.000000 0.000000 -0.341643 -6.968042 -4.953108 12.968411 1.762223 5.843538 0.000000 0.000000 0.000000 11.611974 10.929202 1.448366 -21.039337 -5.593705 3.943860 0.000000 0.000000 0.000000 6.365907 9.430949 4.701261 43.264933 24.040083 1.414628 28.569979 70.776160 18.101482 -7.207466 -1.400868 2.162070 15.451618 -3.711824 1.347948 2.513471 1.642788 -6.164579 0.000000 0.000000 0.000000 14.218775 2.553735 -3.353780 0.740018 0.891100 -4.724816 0.000000 0.000000 0.000000 -12.959074 14.558050 -14.920082 24.862557 -2.521175 6.608765 0.000000 0.000000 0.000000 9.502486 5.468265 -3.671905 11.351244 -0.173329 1.830183 0.000000 0.000000 0.000000 -12.577862 -19.915470 14.380854 7.105344 0.648150 1.755706 0.000000 0.000000 0.000000 
0.000498 0.705147 0.001907 -0.953603 -0.030764 -38.669951 16.748174 0.248709 -23.788404 -18.777052 4.281452 59.872136 0.645818 -2.954278 -4.932632 0.000000 0.000000 0.000000 -15.660956 -0.369641 -25.073599 24.035095 -11.888225 58.407591 9.188573 22.962085 -3.130484 0.000000 0.000000 0.000000 -2.631006 -3.234598 59.542350 -1.458154 -0.367401 -5.013354 1.813191 2.610798 6.432110 7.336113 -3.847460 11.483890 0.000000 0.000000 0.000000 -1.429860 -7.371036 3.410184 -16.720589 -37.993868 -8.922586 29.151660 -62.982590 -12.837540 4.579308 -12.845343 -20.043151 -2.313649 0.625249 0.278549 10.624287 -2.497081 -14.135205 0.000000 0.000000 0.000000 -6.628099 -5.748041 -3.657373 11.993163 -0.789309 -5.512757 0.000000 0.000000 0.000000 16.178401 -14.115501 -19.809133 3.626886 3.146986 12.489626 0.000000 0.000000 0.000000 -0.469356 -6.976816 -4.955169 12.694180 1.763072 5.538065 0.000000 0.000000 0.000000 11.520298 10.761516 1.254457 -20.785013 -5.751206 3.803605 0.000000 0.000000 0.000000 6.428626 8.891959 4.389599 42.938680 23.342189 1.242373 29.027767 72.761756 19.055300 -7.170012 -0.987670 -1.236982 13.622783 -3.304941 1.296882 1.007461 1.863942 -6.922422 0.000000 0.000000 0.000000 13.149598 2.613308 -3.140466 -0.939684 0.897107 -4.447121 0.000000 0.000000 0.000000 -12.162961 14.201106 -15.546910 22.730738 -1.697365 4.835266 0.000000 0.000000 0.000000 9.796245 4.866063 -3.302755 9.510162 0.385355 -0.034958 0.000000 0.000000 0.000000 -12.722967 -20.421248 14.196982 6.798921 1.693016 1.303578 0.000000 0.000000 0.000000 
0.001028 0.705147 0.001907 -0.964005 -0.057090 -38.670173 16.613372 0.221292 -23.846217 -18.553362 4.152644 60.026630 0.579032 -3.139929 -4.973586 0.000000 0.000000 0.000000 -15.680009 -0.370001 -25.007504 23.969552 -11.821055 58.335568 9.305829 23.094983 -3.015166 0.000000 0.000000 0.000000 -2.642899 -3.294843 60.782048 -1.590258 -0.772003 -6.886387 2.256291 2.337068 7.711158 6.698528 -3.529298 10.745611 0.000000 0.000000 0.000000 -1.181103 -6.537910 3.018180 -16.837040 -37.937628 -8.896840 30.900747 -62.867726 -13.835356 5.272588 -12.559417 -20.268348 -1.771104 0.513950 0.222173 11.232404 -2.405779 -14.035686 0.000000 0.000000 0.000000 -6.576366 -6.021622 -3.766784 12.426871 -0.747016 -5.444993 0.000000 0.000000 0.000000 16.243614 -14.102348 -19.681518 3.803197 2.990710 11.961516 0.000000 0.000000 0.000000 -0.828070 -7.267514 -5.106966 14.239648 1.874795 6.387476 0.000000 0.000000 0.000000 12.297179 10.588777 0.660012 -21.378312 -5.417546 4.070876 0.000000 0.000000 0.000000 6.160623 8.305980 4.042850 43.086245 23.987536 1.314131 27.201186 74.953431 18.542546 -7.441518 -0.623964 -3.517108 11.818061 -1.806186 0.942549 2.381932 2.093286 -8.124157 0.000000 0.000000 0.000000 12.519383 3.598399 -3.408738 -0.278592 1.404753 -7.187035 0.000000 0.000000 0.000000 -11.370204 14.268760 -16.391438 19.588897 -1.720806 5.073020 0.000000 0.000000 0.000000 10.044722 6.982778 -4.415591 8.856930 0.688387 -1.028221 0.000000 0.000000 0.000000 -13.313643 -19.640195 12.487207 7.192536 0.142360 1.822949 0.000000 0.000000 0.000000 
